<svg width="120" height="120" viewBox="0 0 120 120" fill="none" xmlns="http://www.w3.org/2000/svg">
<g clip-path="url(#clip0_49_2)">
<path d="M65.994 45.9275C65.994 45.9275 66.5226 44.4016 67.6695 43.873C68.8065 43.3444 70.7114 43.2646 70.7114 43.2646L73.9029 81.014L71.3098 99.6443C71.3098 99.6443 70.5519 101.848 68.5672 101.928C66.5924 102.008 50.1463 101.928 48.7001 101.928C47.254 101.928 46.7952 100.023 46.7254 99.1855C46.6456 98.3478 46.6755 96.9415 46.6755 96.9415L39.6543 96.9116C39.6543 96.9116 39.2453 99.9036 39.9235 101.789C40.512 103.424 41.0406 104.731 41.0306 105.289C41.0206 106.087 39.9634 106.885 38.7467 106.815C37.5299 106.735 35.7048 105.14 34.488 104.152C33.2713 103.165 13.7633 103.394 13.7633 103.394C13.7633 103.394 12.8258 105.13 11.7786 106.177C11.1503 106.805 10.133 107.114 9.21543 107.114C8.29787 107.114 7.1609 105.898 7.39029 105.06C7.61968 104.222 8.65691 102.297 8.83643 100.422C8.91622 99.5745 8.8165 97.2108 8.39761 96.8218C8.29788 96.7321 6.78191 96.7819 5.36569 96.6323C2.95213 96.383 0.538565 93.2613 0.239362 90.8278C-0.0698131 88.3943 0.159573 80.7048 0.159573 80.7048L65.994 45.9275Z" fill="#B3AFAF"/>
<path d="M71.9482 88.1948H0.109724C0.109724 88.1948 -0.059831 90.2095 0.289238 91.506C0.474316 92.1942 0.789138 92.8408 1.21677 93.4109L71.5392 93.4009L71.9482 88.1948Z" fill="#9A9A9A"/>
<path d="M97.1509 84.9335L112.36 89.6409L119.96 87.0179C119.96 87.0179 119.691 72.7161 119.601 71.2699C119.511 69.8238 119.152 68.5572 117.786 67.6496C116.43 66.742 112.63 64.4781 112.63 64.4781C112.63 64.4781 100.951 45.738 99.9535 44.3816C98.9561 43.0253 97.7294 41.3697 94.8271 41.1004C91.9249 40.8311 74.0126 41.0505 72.387 41.1403C70.7613 41.23 69.5446 41.9681 69.5446 45.4987C69.5446 49.0292 69.6343 75.9774 69.7241 77.3338C69.8138 78.6902 76.6057 83.6669 76.6057 83.6669L97.1509 84.9335Z" fill="#E0E0E0"/>
<path d="M75.01 102.078C75.01 102.078 73.5539 102.118 72.5466 101.978C71.5392 101.838 70.0233 100.831 69.9535 98.4475C69.9136 97.0313 69.7241 77.3338 69.7241 77.3338L96.8517 77.3936L105.628 86.998L119.96 87.018C119.96 87.018 120.02 92.6529 119.98 94.1589C119.94 95.6749 112.141 98.9761 112.141 98.9761L75.01 102.078Z" fill="#DC0D28"/>
<path d="M119.98 94.1589H103.643C103.643 94.1589 100.143 87.1775 90.0796 87.2972C75.299 87.4767 74.9998 102.068 74.9998 102.068H113.497C115.661 102.068 118.753 101.35 119.541 98.617C120.209 96.3231 119.98 94.1589 119.98 94.1589Z" fill="#B10A1B"/>
<path d="M109.977 68.3976C109.977 68.3976 109.977 66.7719 111.044 66.7121C112.111 66.6523 113.288 67.3205 114.355 68.2281C115.482 69.1855 116.041 70.0532 116.26 70.8112C116.599 71.9382 116.32 72.9455 114.574 72.9953C112.44 73.0652 78.5505 72.8457 76.9847 72.7161C75.0199 72.5465 73.8431 71.7088 73.9029 70.2427C73.9528 68.8364 74.9701 68.3876 79.1789 68.3378C83.3876 68.2879 109.977 68.3976 109.977 68.3976Z" fill="white"/>
<path d="M119.641 73.1549C119.641 73.1549 109.458 72.8358 109.239 73.0851C108.93 73.4541 108.87 78.2613 108.979 78.9893C109.089 79.7174 110.047 80.226 111.223 80.2759C112.4 80.3258 119.811 80.4455 119.811 80.4455L119.641 73.1549Z" fill="#FDEDC5"/>
<path d="M77.7128 66.6522C76.137 66.6522 75.5785 64.857 75.5785 63.6203V47.972C75.5785 46.7353 76.3664 46.0671 78.8298 45.9474C81.3032 45.8377 92.5731 45.9674 93.8098 46.0073C95.7148 46.0671 97.0113 46.9049 98.7467 49.3185C99.8737 50.8843 106.825 62.3936 107.384 63.3411C107.942 64.2985 108.62 66.8218 105.698 66.8717C102.676 66.9315 77.7128 66.6522 77.7128 66.6522Z" fill="#5F6369"/>
<path d="M104.252 64.0193H79.119C78.6104 64.0193 78.1616 63.4608 78.1616 62.7826C78.1616 62.1044 78.1217 51.5126 78.1017 50.8843C78.0419 49.1489 79.3384 48.75 80.4554 48.8098C81.5824 48.8697 92.9322 48.8298 93.6004 48.8597C94.887 48.9195 96.1636 50.6449 97.2806 52.3504C98.627 54.4149 104.252 64.0193 104.252 64.0193Z" fill="#AFE3FB"/>
<path d="M103.863 65.8743C103.753 68.3976 99.7141 70.4721 98.6968 70.5319C97.6895 70.5918 97.0711 68.627 96.9614 65.984C96.8517 63.3411 97.9089 61.1569 98.7566 61.1569C99.5944 61.1569 103.953 63.74 103.863 65.8743Z" fill="#5F6369"/>
<path d="M102.985 103.664C102.906 108.65 98.9362 115.821 90.2992 115.871C81.6622 115.921 77.1742 109.299 77.4535 102.507C77.7327 95.6051 83.0884 90.7281 90.7979 90.9475C98.0087 91.1669 103.095 96.772 102.985 103.664Z" fill="#4E433D"/>
<path d="M96.8118 103.374C96.772 105.997 94.6875 109.787 90.1396 109.817C85.5918 109.847 83.3976 106.556 83.5372 102.975C83.6868 99.3351 86.5891 96.6223 90.3989 96.6822C94.1888 96.7321 96.8617 99.734 96.8118 103.374Z" fill="#C8C8C8"/>
<path d="M37.1609 103.664C37.0811 108.65 33.1117 115.821 24.4747 115.871C15.8378 115.921 11.3497 109.299 11.629 102.507C11.9083 95.6051 17.264 90.7281 24.9734 90.9475C32.1842 91.1669 37.2706 96.772 37.1609 103.664Z" fill="#4E433D"/>
<path d="M30.9874 103.374C30.9475 105.997 28.863 109.787 24.3151 109.817C19.7772 109.847 17.5731 106.556 17.7127 102.975C17.8623 99.3351 20.7646 96.6223 24.5745 96.6822C28.3643 96.7321 31.0372 99.734 30.9874 103.374Z" fill="#C8C8C8"/>
<path d="M67.1111 20.8843C67.1111 18.2713 65.9641 17.2241 63.8697 17.3338C61.7753 17.4335 4.37834 17.1243 2.50334 17.1243C0.628339 17.1243 -0.109688 19.109 -0.109688 20.256C-0.109688 21.4029 0.249353 79.5878 0.169566 80.7148C0.0997521 81.8417 0.408923 83.4076 2.39363 83.617C4.37834 83.8265 63.2414 83.7167 64.498 83.617C65.7547 83.5173 67.3205 82.4701 67.3205 81.004C67.3205 79.5279 67.1111 22.2407 67.1111 20.8843Z" fill="#D16E1D"/>
<path d="M61.8849 23.1782C61.8849 24.5346 62.3038 75.3491 62.3038 76.6057C62.3038 77.8624 61.6755 79.3285 60 79.3285C58.3244 79.3285 6.8916 79.4282 5.84439 79.3285C4.79718 79.2287 4.16886 78.6004 4.06912 76.9249C3.96939 75.2493 3.96939 24.2354 3.96939 22.5598C3.96939 20.8843 5.64492 20.7846 7.42019 20.7846C9.19546 20.7846 59.4814 20.8843 60.2194 20.994C60.9474 21.0838 61.8849 21.8218 61.8849 23.1782Z" fill="#F5B03A"/>
<path d="M49.5778 81.1037C49.6376 62.7028 49.7673 19.7872 49.5578 18.6204L48.0818 18.8896L46.5957 19.0692C46.7353 20.7148 46.6655 57.0579 46.5857 81.0938L49.5778 81.1037Z" fill="#D16E1D"/>
<path d="M34.3185 18.7899H31.3265V81.2034H34.3185V18.7899Z" fill="#D16E1D"/>
<path d="M19.2188 18.8398H16.2267V80.9441H19.2188V18.8398Z" fill="#D16E1D"/>
</g>
<defs>
<clipPath id="clip0_49_2">
<rect width="120" height="120" fill="white" transform="matrix(-1 0 0 1 120 0)"/>
</clipPath>
</defs>
</svg>
