<svg width="120" height="120" viewBox="0 0 120 120" fill="none" xmlns="http://www.w3.org/2000/svg">
<path d="M96.8535 68.6899L60.9953 44.9276L43.878 70.5792C35.8771 83.0859 38.0317 102.222 45.5348 107.022C53.0404 111.821 73.267 105.572 81.2653 93.0651L96.8535 68.6899Z" fill="#C8E6FF"/>
<path d="M109.886 44.3147C117.885 31.808 113.179 17.7771 105.676 12.9778C98.1708 8.17828 80.497 14.4279 72.4988 26.9346L58.3158 48.9429L92.7434 70.9591L109.886 44.3147Z" fill="#58AB5B"/>
<path d="M82.6645 98.8577L98.2525 74.4825L94.3666 60.6019L73.6068 93.0654C65.6085 105.572 53.0407 111.822 45.535 107.022C58.0443 115.02 74.6662 111.364 82.6645 98.8577Z" fill="#ADD9FF"/>
<path d="M46.4311 75.6848L67.8297 42.2196L52.9589 45.5173L37.3708 69.8925C29.3725 82.3992 33.0283 99.0237 45.535 107.022C38.032 102.222 38.4302 88.1916 46.4311 75.6848Z" fill="#E4F2FF"/>
<path d="M113.841 50.1072C121.839 37.6005 118.183 20.9761 105.676 12.9778C113.179 17.7773 112.779 31.8079 104.78 44.3147L89.1949 68.6899L98.2526 74.4825L113.841 50.1072Z" fill="#559156"/>
<path d="M77.6046 26.9346C85.6028 14.4279 98.1707 8.17829 105.676 12.9778C93.1671 4.97954 76.5452 8.63532 68.5469 21.142L52.9589 45.5173L62.0165 51.3099L77.6046 26.9346Z" fill="#84C688"/>
<path d="M65.6424 51.3096L29.7842 75.0719L12.6669 49.4203C4.66623 36.9136 6.82084 17.7771 14.3239 12.9776C21.8295 8.17804 42.0561 14.4276 50.0544 26.9344L65.6424 51.3096Z" fill="#FFDD77"/>
<path d="M78.675 75.6846C86.6732 88.1913 81.9682 102.222 74.4651 107.021C66.9595 111.821 49.2857 105.571 41.2875 93.0647L27.1045 71.0562L61.5321 49.0399L78.675 75.6846Z" fill="#FF455E"/>
<path d="M51.4533 21.1418L67.0413 45.517L63.1554 59.3976L42.3956 26.9344C34.3974 14.4277 21.8292 8.17804 14.3239 12.9776C26.8329 4.97929 43.455 8.63507 51.4533 21.1418Z" fill="#FFCC3D"/>
<path d="M15.2199 44.3145L36.6185 77.7797L21.7477 74.4821L6.15964 50.1071C-1.83864 37.6003 1.81714 20.9759 14.3239 12.9776C6.82081 17.7771 7.21902 31.8078 15.2199 44.3145Z" fill="#F9F0B5"/>
<path d="M82.6293 69.892C90.6276 82.3987 86.9718 99.0232 74.4651 107.021C81.9682 102.222 81.5674 88.1913 73.5691 75.6846L57.9836 51.3094L67.0413 45.5168L82.6293 69.892Z" fill="#ED2F49"/>
<path d="M46.3934 93.0649C54.3917 105.572 66.9595 111.821 74.4652 107.022C61.9559 115.02 45.334 111.364 37.3357 98.8575L21.7477 74.4823L30.8053 68.6897L46.3934 93.0649Z" fill="#FE7074"/>
<path d="M68.6541 44.4862L68.6539 44.4858L68.6536 44.4853L53.0665 20.1112C47.7465 11.7921 38.6679 6.82544 28.7813 6.82544C23.2927 6.82544 17.9368 8.39528 13.2926 11.3653C6.81239 15.5088 2.33395 21.9283 0.682077 29.4405C-0.969798 36.9529 0.402467 44.659 4.54669 51.139L20.1336 75.5133L20.1338 75.5137L20.134 75.5142L35.7211 99.8885C41.0412 108.207 50.1195 113.174 60.0064 113.174H60.0068C65.4947 113.174 70.8511 111.604 75.495 108.634C81.975 104.49 86.4535 98.0711 88.1054 90.5587C89.7572 83.0463 88.385 75.3403 84.2407 68.8603L68.6541 44.4862ZM4.422 30.2629C5.85426 23.7494 9.73715 18.184 15.3556 14.591C19.3826 12.0159 24.0251 10.6547 28.7811 10.6547C37.355 10.6547 45.2276 14.9608 49.8404 22.1742L64.3962 44.936L22.3287 71.8375L7.77286 49.0758C4.17989 43.4576 2.98997 36.7762 4.422 30.2629ZM84.3659 89.7365C82.9336 96.25 79.0508 101.816 73.4323 105.408C69.4053 107.984 64.7628 109.345 60.0068 109.345C51.4329 109.345 43.5603 105.038 38.9475 97.8255L24.3917 75.0637L66.4592 48.1617L81.015 70.9235C84.6078 76.5422 85.7977 83.2235 84.3659 89.7365Z" fill="#1D2328"/>
<path d="M22.4607 64.9361C22.8264 65.5076 23.4444 65.8197 24.0753 65.8197C24.4283 65.8197 24.7855 65.7222 25.1052 65.5176C25.9958 64.9481 26.2562 63.764 25.6864 62.8732L14.2248 44.9498C11.7339 41.0547 10.9091 36.423 11.9019 31.9078C12.8947 27.3921 15.5865 23.534 19.4811 21.0431C20.3717 20.4736 20.6321 19.2893 20.0624 18.3986C19.4926 17.5078 18.3088 17.2474 17.4179 17.8172C12.6613 20.8589 9.37417 25.5712 8.16151 31.0854C6.94909 36.5997 7.95643 42.2561 10.9984 47.0128L22.4607 64.9361Z" fill="#1D2328"/>
<path d="M60.0076 101.686C54.0586 101.686 48.5982 98.7004 45.3999 93.6996L33.938 75.7762C33.3683 74.8854 32.1844 74.6252 31.2936 75.1947C30.4029 75.7645 30.1425 76.9483 30.7123 77.8392L42.1742 95.7626C46.0793 101.87 52.7464 105.516 60.0078 105.516C61.0653 105.516 61.9224 104.658 61.9224 103.601C61.9222 102.543 61.0653 101.686 60.0076 101.686Z" fill="#1D2328"/>
<path d="M75.1441 72.4054C74.2535 72.975 73.9931 74.1593 74.5629 75.0499C77.0538 78.945 77.8786 83.5767 76.8858 88.0917C76.6587 89.1246 77.3119 90.1458 78.3448 90.3729C78.4831 90.4033 78.6216 90.4179 78.7575 90.4179C79.6369 90.4179 80.4291 89.8083 80.6257 88.9139C81.8381 83.3995 80.8308 77.7431 77.7888 72.9865C77.2193 72.0958 76.0352 71.8357 75.1441 72.4054Z" fill="#1D2328"/>
<path d="M119.318 29.4405C117.666 21.9283 113.188 15.5088 106.708 11.3648C93.331 2.81083 75.4887 6.73357 66.9338 20.1108L62.9323 26.3679C62.3628 27.2585 62.6229 28.4428 63.5136 29.0123C64.4044 29.5819 65.5887 29.3217 66.158 28.4308L70.1595 22.1737C77.5765 10.5759 93.0462 7.17419 104.644 14.5908C110.263 18.1837 114.146 23.7494 115.578 30.2627C117.01 36.776 115.82 43.4571 112.227 49.0755L97.6714 71.8373L92.4898 68.5237C91.5985 67.9542 90.4146 68.2144 89.8454 69.1052C89.2756 69.9958 89.536 71.1799 90.4266 71.7497L95.6084 75.0633L92.7204 79.5792C92.1509 80.4698 92.4111 81.6539 93.3017 82.2237C93.6214 82.4278 93.9786 82.5258 94.3315 82.5258C94.9629 82.5258 95.5812 82.2138 95.9461 81.6424L99.8649 75.5147C99.8649 75.5147 99.8654 75.5142 99.8656 75.5137C99.8658 75.5133 99.8663 75.5126 99.8663 75.5126L115.453 51.1392C119.598 44.659 120.97 36.9529 119.318 29.4405Z" fill="#1D2328"/>
<path d="M74.9972 27.1835C75.6286 27.1835 76.2467 26.8715 76.6118 26.2999C79.8068 21.3044 85.2692 18.3218 91.2242 18.3218C94.5204 18.3218 97.7344 19.2628 100.519 21.0431C101.409 21.6126 102.593 21.3525 103.163 20.4616C103.732 19.5708 103.472 18.3867 102.581 17.8172C99.1803 15.6424 95.2529 14.4926 91.2242 14.4926C83.9562 14.4926 77.2878 18.1352 73.3857 24.2369C72.8161 25.1276 73.0763 26.3116 73.9669 26.8814C74.2871 27.086 74.6443 27.1835 74.9972 27.1835Z" fill="#1D2328"/>
</svg>
